<?xml version="1.0" encoding="UTF-8" standalone="no"?>
<!-- Created with Inkscape (http://www.inkscape.org/) -->

<svg
   version="1.1"
   id="svg2"
   width="401"
   height="352"
   viewBox="0 0 401 352"
   sodipodi:docname="logoiceeat23V51 - Copie.svg"
   inkscape:version="1.2.1 (9c6d41e410, 2022-07-14)"
   xmlns:inkscape="http://www.inkscape.org/namespaces/inkscape"
   xmlns:sodipodi="http://sodipodi.sourceforge.net/DTD/sodipodi-0.dtd"
   xmlns="http://www.w3.org/2000/svg"
   xmlns:svg="http://www.w3.org/2000/svg">
  <defs
     id="defs6" />
  <sodipodi:namedview
     id="namedview4"
     pagecolor="#ffffff"
     bordercolor="#000000"
     borderopacity="0.25"
     inkscape:showpageshadow="2"
     inkscape:pageopacity="0.0"
     inkscape:pagecheckerboard="false"
     inkscape:deskcolor="#d4d4d4"
     showgrid="false"
     inkscape:zoom="1.6813874"
     inkscape:cx="188.2374"
     inkscape:cy="169.80025"
     inkscape:window-width="1920"
     inkscape:window-height="1018"
     inkscape:window-x="-8"
     inkscape:window-y="-8"
     inkscape:window-maximized="1"
     inkscape:current-layer="g8"
     showguides="true"
     borderlayer="true"
     showborder="true" />
  <g
     inkscape:groupmode="layer"
     inkscape:label="Image"
     id="g8">
    <path
       style="fill:#ffffff;fill-rule:evenodd;stroke-width:0.42055"
       d="m 250.22222,207.69336 c -2.55116,-0.38212 -17.24759,-4.77246 -23.13022,-6.90981 -10.43874,-3.79274 -20.26639,-8.46054 -25.57346,-12.14652 -4.50891,-3.13162 -12.48628,-11.35834 -12.48628,-12.87657 0,-0.16404 -0.53671,-1.1708 -1.19268,-2.23724 -1.97904,-3.21739 -4.03573,-10.39603 -4.93972,-17.24153 -0.7995,-6.0542 -0.77768,-7.18612 0.13957,-7.24048 0.40478,-0.024 5.6254,-0.0386 11.60137,-0.0323 9.91862,0.0103 10.9404,0.0782 11.7258,0.77957 0.4732,0.42258 2.21462,2.6608 3.86981,4.97382 7.22573,10.0975 8.5113,11.81972 9.64558,12.92166 l 1.20099,1.16675 h 10.24879 10.24879 l 1.37698,1.51466 c 1.86161,2.04774 3.24768,2.69084 5.79952,2.69084 2.45228,0 3.42174,-0.40554 5.36337,-2.24359 2.55617,-2.41979 2.6594,-6.23923 0.24613,-9.10723 -1.48846,-1.76896 -3.11065,-2.52733 -5.40599,-2.52733 -2.35492,0 -3.69364,0.66371 -5.8679,2.90918 l -1.66242,1.71686 h -8.87608 c -6.46254,0 -9.05859,-0.14294 -9.54726,-0.52568 -0.36915,-0.28913 -2.01028,-2.32354 -3.64698,-4.52091 -1.63668,-2.19737 -3.74347,-5.0242 -4.68174,-6.28184 -0.93828,-1.25763 -1.65159,-2.55574 -1.58514,-2.88468 0.10266,-0.50823 3.45649,-0.5957 22.32568,-0.58227 l 22.20486,0.0158 0.89567,1.13866 c 1.27031,1.61494 4.47942,3.54773 5.89046,3.54773 2.46075,0 6.07314,-2.66376 7.0235,-5.17911 0.75806,-2.00636 0.51618,-3.7997 -0.79037,-5.85992 -2.8208,-4.44794 -7.86405,-4.69592 -11.77672,-0.57907 l -1.44928,1.5249 h -48.93156 -48.93156 l -2.04976,2.04977 c -2.23148,2.23147 -3.91225,2.82149 -6.63659,2.32971 -3.43577,-0.62022 -4.7272,-2.3575 -4.72961,-6.36245 -10e-4,-2.31164 0.14579,-2.78164 1.27312,-4.0656 1.42951,-1.62811 3.50665,-2.20272 6.2731,-1.73533 1.19121,0.20125 2.19218,0.81255 3.54397,2.16435 l 1.88388,1.88387 10.11402,0.006 c 5.56271,0.003 10.30771,-0.11342 10.54444,-0.25973 0.64384,-0.39791 0.51882,-5.25844 -0.19586,-7.61429 -0.34444,-1.13545 -0.62832,-2.86524 -0.63082,-3.84398 -0.005,-1.87601 -0.56939,-6.19573 -1.36144,-10.41641 -0.74395,-3.96443 -1.06007,-8.3413 -0.66061,-9.14695 0.33821,-0.68215 1.56743,-0.73596 16.81117,-0.73596 h 16.44629 l 5.97868,5.88769 c 4.22911,4.16475 6.27303,5.89484 6.98456,5.91211 0.55323,0.0134 6.72786,0.0112 13.7214,-0.005 l 12.71552,-0.0294 1.79344,1.71407 c 2.541,2.42855 3.89596,3.05498 6.07632,2.80922 5.08168,-0.57278 7.94748,-5.81095 5.64209,-10.31271 -1.84895,-3.61047 -6.03377,-4.87813 -9.46518,-2.86719 -1.04111,0.61014 -2.1887,1.53228 -2.55017,2.04921 -0.62997,0.90087 -1.01035,0.95281 -9.16635,1.25172 -4.68001,0.17152 -8.98222,0.32201 -9.56048,0.33442 -0.57825,0.0124 -2.79927,-0.12792 -4.93561,-0.31185 l -3.88423,-0.33442 -5.37866,-5.36695 -5.37866,-5.36696 -7.34882,-0.0261 c -4.04184,-0.0144 -7.86924,-0.1218 -8.50532,-0.23875 -1.56013,-0.28684 -1.49919,-1.33036 0.23685,-4.056088 0.76635,-1.203226 2.31823,-3.946504 3.44863,-6.096173 1.13039,-2.149669 2.27778,-4.093167 2.54975,-4.318884 0.30146,-0.250194 7.18754,-0.429613 17.64058,-0.459632 l 17.14608,-0.04924 1.45644,1.753364 c 2.46135,2.96315 5.19699,3.650173 8.38648,2.106171 2.90585,-1.4067 4.69965,-5.024129 3.92249,-7.910251 -0.66024,-2.451939 -2.2314,-4.07164 -4.92848,-5.080748 l -2.35957,-0.882826 -2.20703,1.079803 c -1.21387,0.593887 -2.70868,1.737492 -3.32181,2.541339 l -1.11476,1.461536 h -18.1992 -18.1992 l -0.91321,0.972071 c -0.50227,0.534636 -1.44926,2.001303 -2.10443,3.259259 -1.20789,2.319192 -3.40858,6.048151 -4.70041,7.964608 -0.38978,0.578255 -1.42608,2.437825 -2.30288,4.132375 -1.00746,1.947056 -1.95183,3.216976 -2.56594,3.450456 -0.53446,0.2032 -5.94974,0.3119 -12.03396,0.24154 -6.08422,-0.0703 -11.6802,-0.0365 -12.43551,0.0752 -1.50056,0.22189 -0.8156,-0.80123 -8.34257,12.46139 -1.82665,3.21857 -3.91127,6.48309 -4.63249,7.25448 l -1.3113,1.40255 h -8.06394 -8.06394 l -1.97959,1.78734 c -2.62898,2.37365 -3.53936,2.83871 -5.55692,2.83871 -6.32096,0 -8.69565,-8.88433 -3.26045,-12.19821 2.65349,-1.61786 6.20104,-0.86523 8.62888,1.83066 0.7538,0.83703 1.81614,1.63371 2.36076,1.7704 0.54461,0.13669 3.87684,0.18718 7.40495,0.1122 l 6.41474,-0.13632 1.31768,-1.52916 c 0.72473,-0.84104 2.24063,-3.112 3.36867,-5.04659 1.12804,-1.93459 2.78395,-4.75892 3.67981,-6.27629 0.89586,-1.51737 1.62883,-3.05796 1.62883,-3.42353 0,-0.88519 -1.08953,-0.98346 -10.80396,-0.97445 l -8.07038,0.007 -1.50388,1.75695 c -4.2192,4.92918 -11.58551,2.41627 -11.5829,-3.95133 0.001,-3.545117 2.77574,-6.426887 6.18716,-6.426887 2.25705,0 3.11715,0.423229 5.6747,2.792319 l 1.97959,1.833727 h 16.75962 c 13.31068,0 16.91759,-0.115504 17.52722,-0.561279 0.68445,-0.500483 0.73627,-0.967373 0.47848,-4.310633 -1.2886,-16.711454 -1.7927,-26.5286 -1.41428,-27.542625 0.29241,-0.783551 0.97022,-0.80888 21.64386,-0.80888 h 21.34199 l 2.02811,1.99761 2.02811,1.997611 h 3.11045 c 2.88086,0 3.2084,-0.09313 4.43727,-1.261649 2.00462,-1.906171 2.63655,-3.406389 2.41334,-5.729336 -0.33694,-3.506648 -3.53816,-6.672137 -6.75066,-6.675304 -1.95671,-0.0021 -4.53609,1.263016 -5.76137,2.825404 -1.66751,2.126302 -2.03314,2.188779 -12.90193,2.204714 -5.59017,0.0082 -10.46329,-0.09997 -10.82915,-0.240365 -0.94771,-0.363666 -0.83186,-1.091188 0.54086,-3.396594 2.03561,-3.418707 5.29383,-9.109646 5.93836,-10.372185 0.33617,-0.658507 1.15934,-1.658501 1.82927,-2.222209 l 1.21805,-1.024924 15.82646,0.119461 15.82646,0.119462 2.37835,1.951859 c 3.22359,2.64552 4.9227,3.181708 7.2572,2.290152 2.13211,-0.814261 3.745,-2.399383 4.65289,-4.5728 0.89754,-2.14862 0.25992,-4.465558 -1.85198,-6.729622 -1.45635,-1.561294 -1.81127,-1.724608 -4.10911,-1.890819 -2.90995,-0.210487 -4.21339,0.319468 -6.41224,2.607105 l -1.44928,1.507805 h -17.534 c -20.24013,0 -18.16998,-0.474028 -21.12097,4.83632 -3.96026,7.126543 -8.16968,14.219543 -9.19441,15.492853 l -1.06965,1.32913 -12.8925,0.122612 -12.89249,0.122611 -0.98579,1.559587 c -1.1545,1.826501 -5.05008,8.500703 -6.98668,11.970086 -1.9571,3.506109 -3.03047,4.231498 -5.67005,3.831846 -1.16429,-0.176282 -3.44163,-0.277344 -5.06075,-0.224574 -2.80921,0.09155 -3.00687,0.166479 -4.32189,1.638297 -2.11692,2.369347 -3.40826,3.052698 -5.7713,3.054044 -2.49932,0.0013 -4.4669,-1.051912 -5.68004,-3.040796 -1.25134,-2.051508 -1.44748,-3.776628 -0.61623,-5.4199 1.52322,-3.011186 3.70538,-4.571997 6.39209,-4.571997 1.78812,0 2.87183,0.606038 5.40306,3.021527 l 1.71393,1.635564 4.37764,-0.12066 4.37764,-0.12066 2.10914,-3.26127 c 4.13727,-6.397248 4.84272,-7.683121 4.84272,-8.827112 v -1.15893 h -12.39601 -12.39602 l -1.31403,1.444024 c -2.63554,2.896267 -6.14135,3.57778 -8.86922,1.72414 -3.14159,-2.13476 -4.0911,-5.425603 -2.47786,-8.58782 0.90792,-1.779661 1.97297,-2.606516 4.3693,-3.392102 2.16737,-0.710523 4.50247,0.181559 7.11048,2.716422 l 1.93992,1.8855 13.80405,-0.01194 c 14.7227,-0.01274 16.89018,-0.158236 17.27439,-1.159489 0.26308,-0.685572 -1.17266,-3.486445 -3.75087,-7.317269 -0.88656,-1.317309 -1.61193,-2.569207 -1.61193,-2.782007 0,-0.212801 -0.39223,-0.88555 -0.87162,-1.494999 -0.74869,-0.951801 -1.19079,-1.108089 -3.13449,-1.108089 -1.9692,0 -2.36092,0.143079 -3.01846,1.102518 -1.69464,2.472711 -2.49407,3.023317 -4.79953,3.30565 -4.76528,0.583571 -7.89961,-1.95136 -7.92776,-6.411676 -0.0251,-3.983225 2.58448,-6.6088 6.51546,-6.555301 2.5873,0.03521 4.328,0.888219 5.82936,2.8566 1.13055,1.482223 1.17233,1.496713 4.31587,1.496713 2.95428,0 3.25256,0.08382 4.30411,1.209502 1.04319,1.116743 6.35695,9.752945 6.35695,10.331655 0,0.140166 0.78321,1.494968 1.74046,3.010671 1.85967,2.94457 3.08508,3.739556 5.08661,3.299943 1.59219,-0.3497 2.00447,-1.530237 2.00447,-5.739556 0,-1.86635 0.17437,-4.077686 0.38749,-4.91408 0.21312,-0.836393 0.60098,-2.845447 0.86192,-4.464562 2.75778,-17.11223 9.4216,-27.501438 19.35752,-30.179311 4.22647,-1.139092 8.29687,-1.6993072 10.1609,-1.398456 1.00362,0.161983 3.43337,0.464788 5.39944,0.672899 18.46237,1.95427 34.96923,7.350963 46.87826,15.326207 7.4676,5.000911 16.87236,15.446539 18.57001,20.625256 0.37912,1.156511 0.82968,2.291995 1.00125,2.523297 0.51915,0.699894 2.42469,6.575347 2.93246,9.041816 0.2619,1.272163 0.74949,3.479568 1.08354,4.905345 0.84639,3.612576 0.83135,15.926558 -0.0235,19.208417 -0.34695,1.332045 -0.63082,3.112576 -0.63082,3.956741 0,0.844161 -0.45671,3.058581 -1.01491,4.920939 -0.55819,1.862353 -1.23364,4.521581 -1.50098,5.909394 -0.26735,1.387814 -0.77889,3.585212 -1.13676,4.883102 -1.10034,3.99058 -0.64165,7.76422 1.61279,13.26865 2.67593,6.53356 5.7264,11.55764 12.44846,20.50244 2.21786,2.95122 2.62844,3.76416 2.62844,5.20424 0,1.19915 -0.30743,2.07203 -1.0338,2.93526 -1.38627,1.6475 -5.5984,3.47939 -8.95838,3.89609 -3.79957,0.47121 -4.19893,0.95814 -3.52016,4.29213 0.29487,1.44836 1.20892,4.04076 2.03121,5.76089 2.02421,4.23438 1.81576,4.76999 -2.71098,6.96569 -1.90744,0.92521 -3.46231,1.87144 -3.45526,2.10274 0.007,0.23131 0.37847,1.17754 0.82538,2.10275 0.44691,0.92521 0.81898,2.0494 0.82683,2.49821 0.008,0.44881 -0.88465,2.62515 -1.98334,4.83632 -1.91988,3.86387 -1.99052,4.13486 -1.81554,6.96416 0.10014,1.61911 0.19477,5.30944 0.21028,8.20071 0.026,4.84524 -0.0594,5.44376 -1.09063,7.64356 -1.50395,3.20819 -4.1439,5.97371 -7.02181,7.35577 -2.14303,1.02916 -2.88275,1.14852 -7.62997,1.23115 -2.89128,0.0503 -5.82461,0.006 -6.51852,-0.0974 z m -97.00955,-63.50808 c 2.05461,-0.55018 2.07863,-3.52173 0.0353,-4.3681 -1.0139,-0.41998 -1.39652,-0.38874 -2.27298,0.18553 -1.23012,0.80601 -1.43206,2.75614 -0.39299,3.79521 0.72107,0.72106 1.14908,0.78409 2.63066,0.38736 z M 128.2328,124.03209 c 1.58574,-1.58574 0.21794,-4.38573 -2.14243,-4.38573 -0.98386,0 -2.2433,1.41663 -2.2433,2.52329 0,2.10618 2.90736,3.34081 4.38573,1.86244 z m 5.61389,-21.02129 c 1.94288,-1.36085 0.67444,-5.080245 -1.61689,-4.741131 -0.5163,0.07641 -1.32176,0.653896 -1.78992,1.283295 -0.71777,0.964986 -0.77436,1.312986 -0.36102,2.220176 0.40619,0.89149 1.59955,1.7441 2.61132,1.86567 0.12201,0.0147 0.64244,-0.26794 1.15651,-0.62801 z m -0.25495,-24.853759 c 1.00208,-0.906869 0.97563,-2.041289 -0.072,-3.088941 -1.10902,-1.109023 -1.92094,-1.061135 -3.169,0.186922 -2.17726,2.177265 0.94886,4.976405 3.24103,2.902019 z m -9.03502,-17.297486 c 0.27466,-0.174646 0.68706,-0.811152 0.91643,-1.414464 0.56143,-1.476654 -0.40689,-2.881172 -1.98636,-2.881172 -1.46302,0 -2.16301,0.697994 -2.16301,2.156818 0,1.884524 1.78043,3.062404 3.23294,2.138818 z m 20.31783,-18.173772 c 1.02335,-1.023344 1.07004,-1.993825 0.1451,-3.01587 -1.43776,-1.588701 -3.93004,-0.627121 -3.93004,1.516299 0,0.837703 1.48521,2.34067 2.31302,2.34067 0.34695,0 1.00932,-0.378495 1.47192,-0.841099 z"
       id="path862" />
    <path
       style="fill:#ffffff;fill-rule:evenodd;stroke-width:0.42055"
       d="m 141.30466,218.41693 c -1.04086,-0.21397 -2.32309,-0.48239 -2.84941,-0.59648 -2.40415,-0.52115 -3.32186,-3.2714 -1.98549,-5.95023 1.04402,-2.09279 1.57491,-9.76194 1.36227,-19.67906 -0.17359,-8.09572 -0.33186,-9.78368 -1.26625,-13.50535 -0.58733,-2.33928 -1.34466,-4.7995 -1.68296,-5.46714 -0.3383,-0.66764 -0.74318,-1.92142 -0.89973,-2.78618 -0.27621,-1.52567 -3.2389,-8.0321 -5.60345,-12.30585 -2.15456,-3.89421 -4.93008,-8.40992 -5.25585,-8.55117 -0.17782,-0.0771 -0.32331,-0.39252 -0.32331,-0.70092 0,-0.3084 -0.1463,-0.62381 -0.3251,-0.70092 -0.36355,-0.15676 -4.7215,-6.95826 -4.7215,-7.36888 0,-0.14399 -0.43877,-0.8474 -0.97506,-1.56314 -0.53628,-0.71574 -1.57052,-2.35367 -2.29831,-3.63984 -0.72778,-1.28618 -1.96516,-2.99945 -2.74971,-3.80729 -1.04406,-1.07504 -1.50745,-2.00874 -1.72851,-3.4829 -0.16612,-1.10775 -0.68176,-2.89555 -1.14586,-3.97287 -1.93755,-4.49761 -4.25293,-12.07545 -5.03167,-16.46774 -2.74515,-15.483469 -1.21922,-35.721114 3.63077,-48.152929 0.63166,-1.619116 1.52035,-3.979194 1.97487,-5.24462 1.24934,-3.478306 4.97866,-9.574885 8.74403,-14.294484 2.24984,-2.819994 10.43752,-11.144155 11.70386,-11.898941 0.6176,-0.368113 1.50155,-1.025783 1.96434,-1.461489 2.51381,-2.366706 17.90678,-11.047898 19.58947,-11.047898 0.21874,0 0.72633,-0.163879 1.12797,-0.364177 0.87483,-0.436278 2.91745,-1.1444 5.77685,-2.002679 1.15651,-0.347139 2.98429,-0.915602 4.06174,-1.26325 1.92582,-0.621383 6.31019,-1.539956 10.86777,-2.2769134 3.77496,-0.6104087 14.29238,-1.3350879 15.38746,-1.0602389 1.36685,0.3430555 1.30649,1.6081233 -0.14254,2.9877243 -1.63346,1.555193 -2.74378,1.918594 -7.04421,2.305519 -4.15767,0.374082 -8.44342,1.03163 -10.72401,1.645354 -0.80956,0.217858 -2.41816,0.615685 -3.57467,0.88406 -2.66698,0.618886 -6.09149,1.659709 -7.0385,2.139231 -0.40164,0.203372 -0.92809,0.369767 -1.16988,0.369767 -0.24179,0 -1.80499,0.662366 -3.47377,1.471924 -1.66879,0.809557 -3.23111,1.471923 -3.47182,1.471923 -1.0103,0 -7.47617,3.70839 -11.97148,6.866035 -4.17476,2.932485 -11.77664,9.880807 -13.88308,12.689521 -3.5439,4.725405 -5.47509,7.716889 -7.17617,11.116176 -2.73773,5.470825 -4.59427,9.613587 -4.59427,10.251822 0,0.291352 -0.38403,1.622354 -0.85339,2.95778 -0.46937,1.33543 -1.04921,3.978331 -1.28854,5.873122 -0.23933,1.894786 -0.62196,4.012808 -0.85028,4.706715 -0.59793,1.817195 -0.8725,17.824123 -0.38232,22.289128 0.77815,7.088178 1.77862,12.091828 2.81466,14.076978 0.30508,0.58454 0.55585,1.31931 0.55728,1.63281 0.003,0.58067 3.43787,7.73293 5.17995,10.78484 1.56947,2.7495 5.89652,9.24097 6.26065,9.39227 0.18556,0.0771 0.33737,0.3629 0.33737,0.63512 0,0.27222 0.4289,0.96612 0.95311,1.54202 0.52421,0.57589 1.70312,2.08793 2.61981,3.3601 0.91669,1.27216 1.90715,2.56309 2.20102,2.86875 0.29387,0.30564 0.53454,0.68414 0.53482,0.84109 2.8e-4,0.15696 0.48495,0.84869 1.07705,1.53718 1.13479,1.31954 6.02997,8.63933 8.86587,13.25716 2.28951,3.72812 7.10863,13.71133 7.72538,16.00379 0.27664,1.02826 0.7901,2.42523 1.14102,3.10437 0.9001,1.74202 2.4391,7.79198 3.05574,12.01251 0.28726,1.96607 0.78093,4.72663 1.09705,6.13459 0.73719,3.28343 1.50381,18.42697 0.99993,19.75228 -0.2066,0.54341 -0.92626,1.27275 -1.59923,1.62076 -2.59157,1.34015 -9.47661,1.86481 -13.53178,1.03116 z"
       id="path864" />
    <path
       style="fill:#ffffff;fill-rule:evenodd;stroke-width:0.42055"
       d="m 145.22158,299.24196 c -0.73697,-0.44936 -1.51565,-1.15833 -1.73041,-1.57549 -0.22048,-0.42826 -0.49823,-12.54848 -0.63799,-27.83938 -0.26372,-28.85435 -0.2734,-28.6849 1.7398,-30.4781 0.82803,-0.73754 1.80064,-0.78178 16.14407,-0.73425 14.97659,0.0496 15.27676,0.0672 15.99891,0.93655 1.06296,1.27962 1.00077,4.73348 -0.10514,5.83939 -0.79937,0.79938 -1.40183,0.8411 -12.14444,0.8411 -8.53055,0 -11.40994,0.12895 -11.73788,0.52569 -0.2826,0.34187 -0.48442,8.20047 -0.57718,22.47499 -0.11425,17.58029 -0.034,22.05881 0.40328,22.49941 0.41361,0.41676 3.43062,0.60105 12.44801,0.76036 9.03532,0.15963 12.06411,0.345 12.57474,0.76961 1.04153,0.86606 1.65004,3.13583 1.17539,4.38425 -0.91456,2.40548 -0.99107,2.41618 -17.27014,2.41446 -14.05258,-0.002 -15.02075,-0.0501 -16.28102,-0.81859 z"
       id="path866" />
    <path
       style="fill:#ffffff;fill-rule:evenodd;stroke-width:0.42055"
       d="m 162.04414,273.11593 c -3.7982,-2.433 -4.03446,-7.27854 -0.49989,-10.25268 1.71808,-1.44567 5.95266,-1.55056 7.68198,-0.19028 1.27759,1.00495 2.77855,3.70962 2.77855,5.00684 0,1.41744 -1.56636,4.07434 -3.0848,5.23251 -1.81145,1.38166 -4.89425,1.47295 -6.87584,0.20361 z"
       id="path868" />
    <path
       style="fill:#ffffff;fill-rule:evenodd;stroke-width:0.42055"
       d="m 204.62248,298.69534 -1.3627,-1.36679 -0.26008,-27.26546 c -0.27865,-29.21237 -0.25657,-29.59374 1.78785,-30.8705 0.58529,-0.36553 5.00426,-0.51581 16.07561,-0.5467 l 15.26844,-0.0426 0.94973,1.10413 c 1.32512,1.54055 1.31328,4.35402 -0.0236,5.60996 -0.94985,0.89234 -1.248,0.91441 -12.35472,0.91441 -8.75558,0 -11.48481,0.12464 -11.82973,0.54024 -0.29633,0.35705 -0.54323,7.87961 -0.72813,22.18399 -0.23158,17.91685 -0.18135,21.77136 0.29173,22.38484 0.52043,0.67487 1.63629,0.74518 12.48771,0.78683 11.51962,0.0442 11.95057,0.0755 12.94872,0.94111 1.45412,1.26099 1.52879,4.48257 0.13821,5.96278 l -0.96816,1.03056 H 221.51428 205.9852 Z"
       id="path870" />
    <path
       style="fill:#ffffff;fill-rule:evenodd;stroke-width:0.42055"
       d="m 224.2686,273.96533 c -3.05238,-0.64657 -4.74172,-2.96036 -4.74172,-6.49447 0,-3.62999 2.14593,-5.71421 5.91346,-5.74339 3.02676,-0.0234 4.40463,0.68435 5.64198,2.8982 1.34216,2.40139 1.34685,4.30032 0.0158,6.40881 -1.53311,2.42861 -4.06702,3.51602 -6.82953,2.93085 z"
       id="path872" />
    <path
       style="fill:#ffffff;fill-rule:evenodd;stroke-width:0.42055"
       d="m 260.05638,299.11589 c -1.12259,-0.75173 -2.10675,-1.71179 -2.18703,-2.13346 -0.13943,-0.7324 1.43644,-5.77476 8.81667,-28.21087 1.81874,-5.52905 3.30681,-10.41255 3.30681,-10.85221 0,-0.43966 0.53374,-2.06643 1.18609,-3.61504 0.65234,-1.54861 1.92976,-5.16351 2.83871,-8.03311 1.09595,-3.46 2.02819,-5.62029 2.76759,-6.41338 1.11391,-1.19481 1.12006,-1.19593 6.54115,-1.19593 h 5.4262 l 1.34467,1.38735 c 1.04033,1.07335 1.81648,2.81044 3.42929,7.67503 1.14654,3.45822 2.37395,7.13929 2.72757,8.18015 0.35362,1.04086 2.46787,7.56989 4.69833,14.50896 2.23046,6.93907 4.97702,15.42385 6.10345,18.85507 2.65522,8.08806 2.65137,8.32792 -0.15982,9.94013 -1.21434,0.69641 -2.63369,1.26798 -3.15412,1.27015 -1.28044,0.005 -2.38732,-1.19236 -3.1508,-3.40931 -1.06561,-3.09432 -10.0841,-30.27309 -10.93823,-32.96428 -0.44047,-1.38782 -1.43933,-4.22653 -2.2197,-6.30825 -0.78037,-2.08172 -1.53395,-4.55779 -1.67461,-5.50238 -0.14066,-0.94459 -0.63263,-2.33718 -1.09327,-3.09464 -0.78273,-1.28709 -0.88678,-1.33262 -1.59039,-0.69586 -0.41407,0.37473 -1.08999,1.76732 -1.50205,3.09464 -0.41205,1.32731 -1.1258,3.45416 -1.5861,4.72632 -0.46031,1.27216 -1.17662,3.54313 -1.59182,5.0466 -0.41519,1.50346 -1.25065,4.0583 -1.85659,5.67741 -1.22188,3.265 -5.34322,15.52317 -8.48361,25.23298 -2.79467,8.64087 -3.89548,9.58141 -7.99839,6.83393 z"
       id="path874" />
    <path
       style="fill:#ffffff;fill-rule:evenodd;stroke-width:0.42055"
       d="m 280.71685,286.56504 c -2.45109,-1.26611 -3.3644,-2.69369 -3.3644,-5.25884 0,-4.00772 1.73928,-5.63595 6.02037,-5.63595 1.88573,0 2.75755,0.21245 3.60396,0.87823 2.7315,2.1486 3.16957,5.74186 1.00112,8.2116 -1.36001,1.54896 -3.41767,2.69071 -4.82939,2.67973 -0.4122,-0.003 -1.50646,-0.39686 -2.43166,-0.87477 z"
       id="path876" />
    <path
       style="fill:#ffffff;fill-rule:evenodd;stroke-width:0.42055"
       d="m 345.80218,300.01783 c -2.68929,-0.78528 -2.63372,-0.20269 -2.63372,-27.61071 0,-19.15175 -0.11896,-24.91001 -0.52569,-25.44711 -0.44299,-0.58498 -1.5993,-0.71435 -7.35066,-0.8224 -7.85946,-0.14766 -8.09949,-0.25056 -8.42234,-3.61056 -0.16595,-1.72707 -0.0475,-2.23822 0.68954,-2.97525 0.88007,-0.88007 1.10132,-0.88991 19.99488,-0.88991 20.54769,0 19.9499,-0.062 20.64936,2.1418 0.4679,1.4742 -0.18375,3.65423 -1.3716,4.5886 -1.03809,0.81656 -1.57814,0.87206 -7.58526,0.77953 -5.24991,-0.0809 -6.53972,0.0144 -6.8507,0.50585 -0.21467,0.33927 -0.42102,10.12796 -0.46933,22.26379 -0.0474,11.91206 -0.0976,23.3098 -0.11158,25.32831 -0.0231,3.34493 -0.11848,3.76042 -1.07673,4.69082 -1.25112,1.21476 -3.06572,1.60341 -4.93617,1.05724 z"
       id="path878" />
    <path
       style="fill:#ffffff;fill-rule:evenodd;stroke-width:0.42055"
       d="m 82.048522,298.62759 c -3.295155,-1.42183 -5.040127,-2.99301 -6.294049,-5.66717 l -1.106922,-2.36066 -0.210275,-17.66308 c -0.240842,-20.2307 -0.01462,-25.47241 1.201139,-27.83179 1.246563,-2.41916 3.366161,-4.21492 6.359731,-5.38809 2.620956,-1.02715 2.970975,-1.05491 13.298654,-1.05491 9.94433,0 10.76023,0.0584 13.06243,0.93478 1.57806,0.60073 3.15814,1.63428 4.42156,2.89219 2.50395,2.49303 3.29089,4.97513 3.29089,10.37982 0,3.94388 -0.006,3.96711 -1.42986,5.39082 -1.61056,1.61055 -3.25548,1.85575 -5.31269,0.79192 -1.81606,-0.93911 -2.63562,-2.80411 -2.3011,-5.23637 0.37335,-2.71456 -0.35828,-5.17797 -1.93084,-6.5012 l -1.28598,-1.08207 h -8.737862 c -8.70124,0 -8.742546,0.004 -9.854931,1.03526 -0.614388,0.5694 -1.282736,1.47101 -1.485221,2.00358 -0.202484,0.53257 -0.434249,9.57638 -0.515035,20.09735 -0.158805,20.68175 -0.225503,20.00664 2.176191,22.02753 l 1.303396,1.09673 h 8.399609 c 6.545653,0 8.661963,-0.13567 9.588243,-0.61466 1.67837,-0.86792 2.55454,-3.34275 2.55454,-7.21556 0,-3.02313 0.0672,-3.24995 1.30613,-4.40726 1.43299,-1.33861 3.29878,-1.59493 5.22414,-0.71768 1.90623,0.86854 2.22188,2.11282 1.91494,7.5486 -0.26784,4.74328 -0.32537,4.97049 -1.83377,7.24231 -1.80139,2.71308 -2.59551,3.30785 -5.96381,4.46672 -2.21788,0.76306 -3.50594,0.84521 -13.014539,0.82999 -10.10258,-0.0162 -10.650007,-0.0587 -12.824709,-0.9971 z"
       id="path880" />
    <path
       style="fill:#ffffff;fill-rule:evenodd;stroke-width:0.42055"
       d="m 39.664014,299.44659 c -2.623195,-1.14091 -2.548179,-0.28218 -2.629407,-30.09962 -0.04566,-16.7627 0.08252,-27.55201 0.33524,-28.2167 0.735416,-1.9343 1.625128,-2.46838 4.111974,-2.46838 1.270847,0 2.650729,0.18201 3.066404,0.40448 1.832792,0.98088 1.858737,1.50069 1.538786,30.82991 -0.166815,15.29156 -0.47591,28.12537 -0.686876,28.51956 -0.391647,0.7318 -2.510918,1.65947 -3.723345,1.62983 -0.370263,-0.009 -1.276012,-0.27864 -2.012776,-0.59908 z"
       id="path882" />
    <path
       style="fill:#ffffff;fill-rule:evenodd;stroke-width:0.42055"
       d="m 5.2852496,345.66006 c -0.4094348,-0.40944 -0.6464828,-1.33319 -0.6205337,-2.41816 0.023094,-0.9656 0.032093,-7.14798 0.019997,-13.73861 -0.012096,-6.59064 0.1264157,-12.13138 0.3078029,-12.31277 0.480267,-0.48027 18.5817392,-0.45115 19.0635532,0.0307 0.2301,0.2301 0.342402,2.91992 0.263352,6.30771 -0.12707,5.44577 -0.211635,5.98501 -1.084057,6.91246 -1.165598,1.23913 -1.179266,1.72196 -0.09044,3.19468 0.747628,1.01122 0.862653,1.83777 0.910012,6.53922 0.04256,4.22454 -0.07364,5.46261 -0.540387,5.75807 -0.32703,0.20701 -4.41334,0.37928 -9.080688,0.38282 -7.1687839,0.005 -8.5889352,-0.0964 -9.1486139,-0.65608 z m 12.6356044,-4.21352 c 0.753458,-0.20223 0.927969,-0.66015 1.147496,-3.01101 0.16556,-1.77294 0.09197,-2.97365 -0.204128,-3.33042 -0.648714,-0.78165 -8.061809,-0.78165 -8.710523,0 -0.7254328,0.87409 -0.119227,6.08469 0.734447,6.31289 1.036491,0.27707 6.031248,0.29734 7.032708,0.0285 z m 0.551043,-12.53787 c 0.304583,-0.367 0.444003,-1.76528 0.366906,-3.67981 l -0.124347,-3.08788 h -4.205495 -4.205496 l -0.124347,3.08788 c -0.0771,1.91453 0.06232,3.31281 0.366906,3.67981 0.349723,0.42139 1.491449,0.59193 3.962937,0.59193 2.471487,0 3.613213,-0.17054 3.962936,-0.59193 z"
       id="path884" />
    <path
       style="fill:#ffffff;fill-rule:evenodd;stroke-width:0.42055"
       d="m 48.090899,345.80167 c -0.428182,-0.69282 -0.501324,-3.03849 -0.52123,-16.71597 -0.01056,-7.25944 0.141493,-11.718 0.408769,-11.98566 0.691783,-0.69278 18.127783,-0.76799 19.065602,-0.0822 0.70792,0.51764 0.759547,1.5138 0.742458,14.32584 -0.01337,10.02524 -0.154835,13.93395 -0.520234,14.37423 -0.310038,0.37357 -1.28027,0.60471 -2.538326,0.60471 -2.695286,0 -2.907149,-0.47245 -2.907149,-6.48286 v -4.85595 l -1.156512,-0.30735 c -1.991985,-0.52939 -6.229172,-0.3851 -6.979569,0.23768 -0.57426,0.47659 -0.695461,1.43304 -0.695461,5.48817 0,3.25893 -0.169768,5.08076 -0.504659,5.41565 -0.6634,0.6634 -3.981226,0.65113 -4.393689,-0.0163 z m 12.916438,-16.73642 c 0.692423,-0.37057 0.813452,-0.90123 0.813452,-3.56666 0,-3.68447 -2.33e-4,-3.68463 -5.051548,-3.48319 l -3.149169,0.12558 -0.124063,3.32788 c -0.08866,2.37832 0.03133,3.42646 0.420549,3.67337 0.782779,0.49657 6.127501,0.43855 7.090779,-0.077 z"
       id="path886" />
    <path
       style="fill:#ffffff;fill-rule:evenodd;stroke-width:0.42055"
       d="m 98.570042,346.00073 c -0.52956,-0.34858 -1.106018,-4.39056 -1.0337,-7.24804 0.02634,-1.04086 0.08238,-4.95789 0.124531,-8.7045 0.09158,-8.13996 -0.07812,-8.53803 -3.639646,-8.53803 -2.651551,0 -4.023616,-0.85103 -4.023616,-2.49565 0,-2.07602 0.414135,-2.15572 10.566689,-2.03345 l 9.40942,0.11332 0.12799,1.76031 c 0.15364,2.11297 -0.53894,2.64606 -3.36403,2.58936 -4.30113,-0.0863 -4.72495,0.85885 -4.36682,9.73875 0.32335,8.01757 0.32374,9.0054 0.005,11.98566 -0.28752,2.68668 -0.61816,3.14124 -2.28486,3.14124 -0.578255,0 -1.262596,-0.13904 -1.520758,-0.30897 z"
       id="path888" />
    <path
       style="fill:#ffffff;fill-rule:evenodd;stroke-width:0.42055"
       d="m 134.36559,346.44721 c -0.4626,-0.11345 -0.98646,-0.34273 -1.16414,-0.50952 -0.17767,-0.16678 -0.34777,-6.57681 -0.37799,-14.2445 -0.0423,-10.72534 0.0684,-14.08985 0.47967,-14.58544 0.54591,-0.65779 4.28461,-0.91445 5.6558,-0.38827 0.6705,0.25729 3.5562,5.89082 4.8236,9.41672 0.37414,1.04086 1.13636,2.62766 1.69382,3.52622 0.94235,1.51895 1.05302,1.57979 1.57506,0.86585 0.40763,-0.55746 0.56149,-2.45147 0.56149,-6.91164 0,-4.21774 0.15821,-6.30196 0.50466,-6.64841 0.6543,-0.65429 4.22408,-0.65429 4.87838,0 0.56703,0.56703 0.74069,27.91334 0.18281,28.78664 -0.38064,0.59583 -0.92649,0.68076 -3.96897,0.61755 l -2.39834,-0.0498 -2.06807,-4.31063 c -1.13745,-2.37085 -2.3121,-4.973 -2.61033,-5.78256 -0.29824,-0.80956 -1.01396,-2.11215 -1.59049,-2.89465 l -1.04823,-1.42273 -0.61358,1.17105 c -0.42989,0.82047 -0.5214,1.68706 -0.30568,2.89465 0.45557,2.55022 0.0642,9.34219 -0.57539,9.98515 -0.41099,0.41316 -2.68729,0.71655 -3.63408,0.48435 z"
       id="path890" />
    <path
       style="fill:#ffffff;fill-rule:evenodd;stroke-width:0.42055"
       d="m 176.65295,345.71841 c -0.35361,-0.42607 -0.57039,-4.56329 -0.73542,-14.03531 -0.23155,-13.29009 -0.22461,-13.44053 0.6602,-14.32534 0.85373,-0.85374 1.28428,-0.8942 9.51546,-0.8942 8.18597,0 8.66567,0.0444 9.50075,0.87949 0.86727,0.86726 0.87591,1.06961 0.62196,14.56346 -0.14164,7.52619 -0.35933,13.8487 -0.48376,14.05003 -0.12442,0.20132 -1.16598,0.36604 -2.31456,0.36604 -2.63543,0 -2.78157,-0.3322 -2.8607,-6.5031 -0.0325,-2.53584 -0.22055,-4.77204 -0.41784,-4.96933 -0.57358,-0.57358 -7.50529,-0.58641 -8.07675,-0.0149 -0.308,0.308 -0.55401,2.44889 -0.64932,5.65058 -0.10501,3.52744 -0.31982,5.26033 -0.68046,5.48931 -0.87584,0.55609 -3.54437,0.38819 -4.07956,-0.25668 z m 13.35135,-16.72247 c 0.29056,-0.29056 0.50466,-1.6822 0.50466,-3.28029 0,-1.59809 -0.2141,-2.98972 -0.50466,-3.28029 -0.31511,-0.3151 -1.8778,-0.50466 -4.1605,-0.50466 -4.22596,0 -4.16638,-0.0573 -4.16638,4.00872 0,2.10708 0.15696,2.7697 0.73596,3.10694 1.04723,0.60996 6.96988,0.57062 7.59092,-0.0504 z"
       id="path892" />
    <path
       style="fill:#ffffff;fill-rule:evenodd;stroke-width:0.42055"
       d="m 247.32474,345.74186 c -0.3326,-0.40075 -0.4463,-2.90949 -0.36691,-8.09558 l 0.11505,-7.51486 6.6398,-0.21027 c 5.27996,-0.16721 6.7213,-0.33947 7.03776,-0.8411 0.58258,-0.92345 0.50903,-6.46239 -0.0938,-7.06524 -0.34482,-0.34482 -2.38394,-0.50465 -6.43814,-0.50465 -6.92861,0 -7.48841,-0.21146 -7.2814,-2.75035 l 0.13579,-1.66543 9.51996,-0.11291 9.51996,-0.11291 0.20375,0.95401 c 0.11207,0.52471 0.0861,4.36046 -0.0576,8.52391 l -0.26135,7.56989 -6.3939,0.21027 c -4.46274,0.14677 -6.55857,0.37617 -6.93907,0.75951 -0.54954,0.55364 -0.64089,5.55448 -0.11696,6.40222 0.14412,0.23319 2.84096,0.40817 6.29101,0.40817 3.32132,0 6.3381,0.11487 6.70398,0.25526 0.92989,0.35684 0.92989,3.75868 0,4.11551 -0.36588,0.1404 -4.50614,0.25527 -9.2006,0.25527 -6.74662,0 -8.63638,-0.1217 -9.01733,-0.58072 z"
       id="path894" />
    <path
       style="fill:#ffffff;fill-rule:evenodd;stroke-width:0.42055"
       d="m 290.22497,345.74689 c -0.34067,-0.41048 -0.44597,-4.60434 -0.36691,-14.6141 l 0.11088,-14.03841 9.22265,-0.11355 c 5.07246,-0.0625 9.37178,0.0356 9.55405,0.21786 0.18227,0.18227 0.36481,6.6397 0.40564,14.34985 0.0614,11.59108 -0.0273,14.08274 -0.51224,14.3898 -0.32256,0.20425 -4.49018,0.37426 -9.26138,0.3778 -6.8348,0.005 -8.77626,-0.11567 -9.15269,-0.56925 z m 12.59838,-4.4857 c 0.76623,-0.41008 0.81345,-0.97013 0.81345,-9.64782 0,-6.58957 -0.14034,-9.29921 -0.49291,-9.51711 -0.59421,-0.36724 -6.88599,-0.33323 -7.4907,0.0405 -0.2685,0.16595 -0.42738,3.69952 -0.42738,9.50497 0,9.19001 0.005,9.24291 0.94623,9.62116 1.31144,0.52713 5.66526,0.52603 6.65131,-0.002 z"
       id="path896" />
    <path
       style="fill:#ffffff;fill-rule:evenodd;stroke-width:0.42055"
       d="m 333.35951,345.70564 c -0.69206,-0.69205 -0.81199,-2.62477 -0.70435,-11.35077 0.0227,-1.84054 0.24432,-3.59108 0.49247,-3.89008 0.33019,-0.39786 2.05514,-0.54364 6.43247,-0.54364 7.28492,0 7.37331,-0.0536 7.37331,-4.46992 0,-1.71952 -0.20867,-3.14042 -0.50466,-3.43642 -0.34168,-0.34167 -2.30227,-0.50465 -6.0706,-0.50465 -6.95993,0 -7.72343,-0.24596 -7.72343,-2.48807 0,-0.91729 0.1623,-1.7681 0.36067,-1.8907 0.19837,-0.1226 4.40196,-0.24166 9.34131,-0.26459 8.11834,-0.0377 9.03263,0.0294 9.52224,0.69902 0.39076,0.5344 0.54001,2.68027 0.53587,7.70452 -0.003,3.83011 -0.11644,7.37659 -0.25174,7.88107 -0.23719,0.8844 -0.47718,0.92204 -6.70319,1.05137 -4.38821,0.0912 -6.62251,0.29982 -6.97312,0.65123 -0.6305,0.63193 -0.57003,5.4578 0.0782,6.23884 0.32207,0.38808 2.24141,0.5826 6.6991,0.67894 3.43624,0.0743 6.35559,0.24344 6.48745,0.37596 0.67699,0.68036 0.70588,2.81628 0.047,3.47517 -0.6067,0.60669 -1.83727,0.69966 -9.26086,0.69966 -6.96356,0 -8.67631,-0.11513 -9.17812,-0.61694 z"
       id="path898" />
    <path
       style="fill:#ffffff;fill-rule:evenodd;stroke-width:0.42055"
       d="m 376.17284,345.62292 c -0.65888,-0.65888 -0.63,-2.79479 0.047,-3.47517 0.13186,-0.13252 3.01424,-0.30296 6.4053,-0.37877 3.45172,-0.0772 6.39858,-0.33121 6.69495,-0.57718 0.3217,-0.26698 0.52939,-1.46602 0.52939,-3.05625 0,-3.54377 -0.48048,-3.93617 -5.01494,-4.09554 -3.99985,-0.14059 -4.73379,-0.64119 -4.00235,-2.72988 0.40403,-1.15377 0.49525,-1.18316 4.31108,-1.38898 2.83434,-0.15289 4.00681,-0.38245 4.29582,-0.8411 0.58222,-0.92395 0.50832,-6.46265 -0.0943,-7.06524 -0.34167,-0.34167 -2.30226,-0.50465 -6.07059,-0.50465 -3.06126,0 -6.06228,-0.18871 -6.66892,-0.41936 -0.98528,-0.3746 -1.08918,-0.61023 -0.97362,-2.20789 l 0.12938,-1.78853 9.43245,-0.11338 c 7.2654,-0.0873 9.51031,0.009 9.77134,0.42055 0.18639,0.29366 0.34179,3.02694 0.34533,6.07395 0.006,5.30038 -0.039,5.59406 -1.04494,6.7895 -1.30269,1.54816 -1.30269,1.77175 0,3.69138 0.96279,1.41874 1.05138,1.93646 1.05138,6.14429 0,2.52725 -0.19591,4.96106 -0.43535,5.40846 -0.40909,0.76439 -0.96531,0.81345 -9.22205,0.81345 -7.63391,0 -8.8785,-0.0918 -9.48637,-0.69966 z"
       id="path900" />
    <path
       style="fill:#ffffff;fill-rule:evenodd;stroke-width:0.42055"
       d="m 245.18041,43.526882 c -1.01223,-1.012231 -1.05166,-1.614987 -0.18643,-2.850272 0.67742,-0.967155 2.41323,-1.242797 3.49826,-0.555514 0.91181,0.577564 0.69902,2.626341 -0.36201,3.48551 -1.20999,0.979795 -1.9092,0.960898 -2.94982,-0.07972 z"
       id="path877" />
    <path
       style="fill:#ffffff;fill-rule:evenodd;stroke-width:0.42055"
       d="m 225.5764,65.073608 c -1.07724,-0.709663 -1.07579,-2.166808 0.003,-3.245818 1.27787,-1.277875 2.08401,-1.332622 3.19935,-0.217276 1.01223,1.012231 1.05166,1.614987 0.18643,2.850272 -0.65267,0.931812 -2.41975,1.251348 -3.389,0.612822 z"
       id="path879" />
    <path
       style="fill:#ffffff;fill-rule:evenodd;stroke-width:0.210275"
       d="m 247.66712,87.639985 c -0.95221,-0.590725 -1.2976,-1.943332 -0.78406,-3.070432 0.3186,-0.699266 1.54535,-1.254578 2.37092,-1.073251 2.02595,0.444972 2.5348,2.352465 1.04296,3.909614 -0.66636,0.695534 -1.73296,0.790467 -2.62982,0.234069 z"
       id="path881" />
    <path
       style="fill:#ffffff;fill-rule:evenodd;stroke-width:0.210275"
       d="m 259.68937,119.2856 c -0.80518,-0.41874 -1.30376,-1.61488 -1.12891,-2.70833 0.21123,-1.32097 0.85141,-1.87237 2.17381,-1.87237 0.91507,0 1.17227,0.0992 1.83733,0.70869 0.6996,0.64113 0.77331,0.8122 0.77331,1.79468 0,0.88953 -0.099,1.18504 -0.5474,1.63341 -0.64994,0.64994 -2.26771,0.881 -3.10814,0.44392 z"
       id="path883" />
    <path
       style="fill:#ffffff;fill-rule:evenodd;stroke-width:0.210275"
       d="m 267.56466,148.47382 c -1.37679,-0.59971 -1.81454,-2.25587 -0.92605,-3.50364 0.96952,-1.36156 2.54709,-1.48185 3.84463,-0.29316 0.64882,0.59441 0.77124,0.84396 0.77124,1.5722 0,1.14631 -0.26807,1.59276 -1.2603,2.09896 -0.95382,0.4866 -1.53216,0.51651 -2.42952,0.12564 z"
       id="path885" />
    <path
       style="fill:#ffffff;fill-rule:evenodd;stroke-width:0.210275"
       d="m 251.52857,168.31958 c -1.30507,-0.79568 -1.58918,-2.45906 -0.62859,-3.68025 1.67949,-2.13513 5.29491,-0.038 4.43126,2.57041 -0.44976,1.35836 -2.44157,1.93968 -3.80267,1.10984 z"
       id="path887" />
  </g>
</svg>
