<?xml version="1.0" encoding="UTF-8" standalone="no"?>
<svg
   width="29.01593mm"
   height="12.526963mm"
   viewBox="0 0 109.66651 47.346003"
   version="1.1"
   id="svg12"
   sodipodi:docname="logo-ieee.svg"
   inkscape:version="1.2.1 (9c6d41e410, 2022-07-14)"
   xmlns:inkscape="http://www.inkscape.org/namespaces/inkscape"
   xmlns:sodipodi="http://sodipodi.sourceforge.net/DTD/sodipodi-0.dtd"
   xmlns:xlink="http://www.w3.org/1999/xlink"
   xmlns="http://www.w3.org/2000/svg"
   xmlns:svg="http://www.w3.org/2000/svg"
   xmlns:ns18="http://www.iki.fi/pav/software/textext/">
  <sodipodi:namedview
     id="namedview14"
     pagecolor="#ffffff"
     bordercolor="#000000"
     borderopacity="0.25"
     inkscape:showpageshadow="2"
     inkscape:pageopacity="0.0"
     inkscape:pagecheckerboard="0"
     inkscape:deskcolor="#d1d1d1"
     showgrid="false"
     inkscape:zoom="4.1837151"
     inkscape:cx="99.552668"
     inkscape:cy="42.904451"
     inkscape:window-width="1920"
     inkscape:window-height="1018"
     inkscape:window-x="-8"
     inkscape:window-y="-8"
     inkscape:window-maximized="1"
     inkscape:current-layer="svg12"
     inkscape:document-units="mm" />
  <defs
     id="defs3">
    <linearGradient
       id="linearGradient3892"
       inkscape:swatch="solid">
      <stop
         style="stop-color:#000000;stop-opacity:1;"
         offset="0"
         id="stop3890" />
    </linearGradient>
    <linearGradient
       id="linearGradient3872"
       inkscape:swatch="solid">
      <stop
         style="stop-color:#000000;stop-opacity:1;"
         offset="0"
         id="stop3870" />
    </linearGradient>
    <path
       id="a"
       d="M 0,0 H 107.667 V 31.388 H 0 Z" />
  </defs>
  <g
     fill="none"
     fill-rule="evenodd"
     id="g10"
     transform="translate(-4.9401184e-4)">
    <mask
       id="b"
       fill="#ffffff">
      <use
         xlink:href="#a"
         id="use5" />
    </mask>
    <path
       fill="#0073ae"
       d="m 21.356,28.931 h -0.227 v -0.287 h 0.18 c 0.096,0 0.228,0.01 0.228,0.132 0,0.132 -0.067,0.155 -0.181,0.155 z m 0.45,-0.128 c 0,-0.272 -0.18,-0.358 -0.487,-0.358 h -0.443 v 1.188 h 0.253 v -0.5 h 0.12 l 0.275,0.5 h 0.303 l -0.307,-0.52 c 0.16,-0.015 0.287,-0.093 0.287,-0.31 z m -0.493,1.086 v -0.003 c -0.437,0.003 -0.791,-0.338 -0.791,-0.848 0,-0.507 0.354,-0.845 0.79,-0.845 0.428,0 0.793,0.338 0.793,0.845 0,0.51 -0.365,0.851 -0.792,0.851 z m 0,-1.954 c -0.587,0 -1.108,0.406 -1.108,1.103 0,0.698 0.52,1.106 1.108,1.106 0.583,0 1.106,-0.408 1.106,-1.106 0,-0.697 -0.523,-1.103 -1.106,-1.103 z m -1.142,-10.44 c -3.063,0.955 -6.917,0.912 -9.821,-0.366 -0.527,-0.256 -1.19,-0.65 -1.364,-1.262 -0.133,-1.12 1.072,-1.743 1.89,-2.154 0.48,-0.21 0.97,-0.443 1.502,-0.472 0.496,0.364 1.014,0.656 1.526,0.984 -0.993,0.264 -2.183,0.49 -2.641,1.577 0.079,0.823 1.014,1.086 1.662,1.29 2.343,0.622 4.874,0.541 7.122,-0.277 0.422,-0.25 1.093,-0.548 1.034,-1.16 -0.07,-0.656 -0.822,-0.947 -1.35,-1.154 a 5.645,5.645 0 0 0 -0.926,0.213 c -0.16,-0.454 -0.298,-0.913 -0.49,-1.35 0.996,0.262 1.987,0.533 3.018,0.714 V 14.1 a 2.8,2.8 0 0 0 -0.652,0.176 v 0.037 c 0.585,0.293 1.394,0.774 1.402,1.54 -0.138,0.928 -1.154,1.35 -1.912,1.641 z m -5.378,5.851 c 0.125,-1.684 0.147,-3.24 0.234,-4.916 0.59,0.056 1.1,0.033 1.642,0.014 l 0.037,0.224 0.21,4.693 c -0.707,0.101 -1.458,0.043 -2.123,-0.015 z m 0.758,-15.25 0.293,-0.932 h 0.036 a 202.324,202.324 0 0 0 1.862,5.113 l -1.285,0.024 -0.028,0.151 0.19,4.59 v 0.072 c -0.476,0.08 -1.057,0.06 -1.526,0.015 l -0.037,-0.052 0.212,-4.728 v -0.036 c -0.36,-0.036 -0.81,0 -1.174,-0.036 L 15.551,8.095 Z M 20.54,8 20.393,7.913 20.33,7.855 A 31.455,31.455 0 0 0 17.656,5.579 C 17.176,5.174 16.04,4.347 15.245,4.964 L 15.223,4.981 A 39.305,39.305 0 0 0 12.347,7.232 C 12.287,7.277 12.21,7.357 12.21,7.357 l -0.08,0.08 c -2.596,2.315 -4.62,4.41 -6.186,6.405 0.006,-0.006 -0.118,0.154 -0.118,0.154 -0.423,0.546 -0.81,1.064 -0.971,1.622 0.006,0.276 0.048,0.494 0.149,0.638 1.352,2.014 3.194,4.105 5.487,6.231 l 0.953,0.865 c 1.42,1.301 2.765,2.527 4.31,3.335 0.33,0.153 0.85,-0.126 1.224,-0.389 2.86,-2.015 5.404,-4.618 7.303,-6.66 l 0.698,-0.83 c 0.828,-0.97 1.613,-1.883 2.037,-2.936 a 0.48,0.48 0 0 0 0.01,-0.109 c 0,-0.182 -0.097,-0.428 -0.337,-0.798 C 25.032,12.596 22.956,10.247 20.539,8 Z m 7.117,8.128 c -0.598,1.487 -1.813,2.68 -2.87,3.977 -2.29,2.465 -4.706,4.851 -7.412,6.758 -0.548,0.385 -1.284,0.742 -1.94,0.437 -1.993,-1.043 -3.67,-2.752 -5.416,-4.306 C 7.999,21.12 5.971,18.936 4.438,16.654 4.212,16.334 4.146,15.938 4.153,15.515 4.352,14.728 4.892,14.077 5.401,13.415 7.21,11.11 9.43,8.92 11.67,6.922 11.72,6.869 11.814,6.76 11.896,6.71 a 39.656,39.656 0 0 1 2.925,-2.29 c 1.054,-0.819 2.37,-0.14 3.255,0.611 A 31.556,31.556 0 0 1 20.81,7.36 l 0.154,0.088 c 2.343,2.174 4.519,4.59 6.305,7.143 0.292,0.446 0.548,0.948 0.388,1.54 z m 3.53,-1.4 -0.088,-0.015 A 52.775,52.775 0 0 1 23.535,8.46 L 20.922,5.731 C 19.862,4.555 18.836,3.258 17.856,2.019 L 16.669,0.333 c -0.147,-0.088 -0.33,-0.234 -0.49,-0.277 -0.35,-0.153 -0.728,0.03 -1.014,0.247 L 13.012,3.106 C 9.562,7.383 5.475,11.372 1.018,14.43 c -0.35,0.28 -0.876,0.548 -0.984,1 -0.118,0.408 0.094,0.745 0.35,1.001 3.566,2.457 6.982,5.375 10.015,8.704 0.54,0.568 0.98,1.13 1.506,1.663 0.889,1.182 1.933,2.371 2.75,3.64 0.254,0.27 0.299,0.707 0.7,0.84 0.314,0.11 0.7,0.183 1,0 l 0.297,-0.302 c 3.695,-5.23 8.378,-9.928 13.609,-13.722 0.527,-0.468 1.527,-0.64 1.54,-1.51 A 1.38,1.38 0 0 0 31.188,14.73 Z m 76.48,-5.967 V 4.151 H 89.554 v 23.78 h 18.115 V 23.318 H 96.14 V 18.28 h 10.606 V 13.67 H 96.14 V 8.762 h 11.527 z M 67.752,27.931 H 85.866 V 23.318 H 74.339 V 18.28 H 84.944 V 13.67 H 74.339 V 8.762 H 85.866 V 4.152 H 67.752 v 23.78 z m -21.803,0 H 64.064 V 23.318 H 52.534 V 18.28 H 63.14 V 13.67 H 52.534 V 8.762 h 11.53 V 4.152 H 45.949 v 23.78 z m -10.044,0 h 6.588 V 4.151 h -6.588 z"
       mask="url(#b)"
       id="path8" />
  </g>
  <g
     transform="matrix(0.839122,0,0,0.839122,34.166714,31.388105)"
     ns18:version="1.8.2"
     ns18:texconverter="pdflatex"
     ns18:pdfconverter="inkscape"
     ns18:text="\\centering\n\\definecolor{cerulean}{rgb}{0.0, 0.48, 0.65}\n\\textcolor{cerulean}{\\textbf{NORTH JERSEY}}\\\\\n\\textcolor{cerulean}{\\textbf{SECTION}}"
     ns18:preamble="C:\Users\ZEROUAL\AppData\Roaming\inkscape\extensions\textext\default_packages.tex"
     ns18:scale="0.6293434119478607"
     ns18:alignment="middle center"
     ns18:stroke-to-path="0"
     ns18:inkscapeversion="1.2.1"
     ns18:jacobian_sqrt="0.839122"
     id="g9003">
    <defs
       id="id-4d5f92b4-59ca-4260-9fd7-65118c86a82a">
      <g
         id="id-0fc317cd-4319-49c6-bbc4-32320a81b3ab">
        <g
           id="id-abb5ec63-c80f-449b-a62e-ec5defb4d1e5" />
        <g
           id="id-c778ab1e-c727-4abd-9bd9-e02d06bcd9ce">
          <path
             d="M 3,-6.703125 C 2.890625,-6.828125 2.875,-6.84375 2.671875,-6.84375 H 0.390625 V -6.375 H 1.46875 v 5.625 c 0,0.21875 -0.015625,0.21875 -0.296875,0.25 -0.234375,0.03125 -0.25,0.03125 -0.53125,0.03125 h -0.25 V 0 c 0.375,-0.03125 0.9375,-0.03125 1.328125,-0.03125 0.421875,0 0.9375,0 1.359375,0.03125 v -0.46875 h -0.25 C 2.640625,-0.46875 2.46875,-0.484375 2.296875,-0.5 2,-0.53125 2,-0.53125 2,-0.75 V -5.96875 L 6.953125,-0.125 C 7.0625,-0.015625 7.0625,0 7.234375,0 7.5,0 7.5,-0.09375 7.5,-0.3125 V -6.078125 C 7.5,-6.296875 7.5,-6.3125 7.78125,-6.34375 8.03125,-6.375 8.046875,-6.375 8.328125,-6.375 h 0.25 V -6.84375 C 8.1875,-6.8125 7.625,-6.8125 7.234375,-6.8125 c -0.421875,0 -0.9375,0 -1.34375,-0.03125 V -6.375 h 0.25 c 0.171875,0 0.34375,0.015625 0.53125,0.03125 0.28125,0.03125 0.296875,0.046875 0.296875,0.265625 v 4.03125 z m 0,0"
             id="id-7daefd09-4cfe-44cb-a606-d129c2df05dc" />
        </g>
        <g
           id="id-5621028b-494a-4549-af03-a62c7276f08c">
          <path
             d="m 7.96875,-3.375 c 0,-2.15625 -1.453125,-3.578125 -3.65625,-3.578125 -2.28125,0 -3.671875,1.484375 -3.671875,3.578125 0,2.0625 1.390625,3.484375 3.65625,3.484375 2.296875,0 3.671875,-1.4375 3.671875,-3.484375 z m -3.671875,3.0625 c -0.59375,0 -1.3125,-0.28125 -1.71875,-1.03125 C 2.25,-1.96875 2.15625,-2.671875 2.15625,-3.53125 c 0,-0.640625 0.03125,-1.484375 0.46875,-2.15625 0.421875,-0.609375 1.078125,-0.859375 1.671875,-0.859375 0.640625,0 1.328125,0.28125 1.71875,0.9375 0.390625,0.640625 0.421875,1.40625 0.421875,2.078125 0,0.703125 -0.03125,1.59375 -0.453125,2.28125 -0.453125,0.71875 -1.15625,0.9375 -1.6875,0.9375 z m 0,0"
             id="id-3b982f1e-0093-4133-bb6d-c02efa6a596c" />
        </g>
        <g
           id="id-9fa4ed76-993a-4775-a51e-db660adde5ed">
          <path
             d="M 2.828125,-3.59375 V -6.375 H 4 c 1.609375,0 1.625,0.78125 1.625,1.390625 0,0.5625 0,1.390625 -1.640625,1.390625 z m 2.65625,0.203125 C 6.640625,-3.6875 7.140625,-4.34375 7.140625,-5 c 0,-1 -1.09375,-1.84375 -2.96875,-1.84375 H 0.390625 V -6.375 H 1.46875 v 5.90625 H 0.390625 V 0 c 0.359375,-0.03125 1.328125,-0.03125 1.75,-0.03125 0.421875,0 1.390625,0 1.75,0.03125 v -0.46875 h -1.0625 v -2.765625 h 1.15625 c 0.140625,0 0.578125,0 0.890625,0.328125 0.3125,0.359375 0.3125,0.546875 0.3125,1.265625 0,0.65625 0,1.15625 0.703125,1.484375 0.4375,0.21875 1.0625,0.265625 1.46875,0.265625 1.0625,0 1.1875,-0.890625 1.1875,-1.0625 0,-0.21875 -0.140625,-0.21875 -0.234375,-0.21875 -0.203125,0 -0.21875,0.109375 -0.234375,0.234375 C 8.03125,-0.46875 7.75,-0.25 7.453125,-0.25 c -0.609375,0 -0.6875,-0.703125 -0.75,-1.125 C 6.6875,-1.484375 6.609375,-2.171875 6.59375,-2.21875 6.453125,-2.921875 5.90625,-3.234375 5.484375,-3.390625 Z m 0,0"
             id="id-e7b694f6-702c-49ec-9e90-7e0969572b18" />
        </g>
        <g
           id="id-c656f062-9c7f-429a-a32a-d7c9b84bc3e9">
          <path
             d="M 7.34375,-6.734375 H 0.625 l -0.203125,2.40625 h 0.46875 c 0.09375,-1.125 0.1875,-1.9375 1.625,-1.9375 H 3.28125 V -0.46875 H 1.75 V 0 c 0.546875,-0.03125 1.65625,-0.03125 2.234375,-0.03125 0.59375,0 1.703125,0 2.234375,0.03125 V -0.46875 H 4.6875 v -5.796875 h 0.765625 c 1.421875,0 1.53125,0.796875 1.625,1.9375 h 0.46875 z m 0,0"
             id="id-55790f9e-4f62-4431-b44d-c73e45a9f8dd" />
        </g>
        <g
           id="id-9bc75f11-e136-417a-b8b7-18c3fa9ef3c0">
          <path
             d="M 7.5,-6.375 H 8.578125 V -6.84375 C 8.1875,-6.8125 7.21875,-6.8125 6.78125,-6.8125 c -0.421875,0 -1.390625,0 -1.78125,-0.03125 V -6.375 h 1.078125 v 2.59375 H 2.875 V -6.375 h 1.078125 v -0.46875 c -0.375,0.03125 -1.34375,0.03125 -1.78125,0.03125 -0.421875,0 -1.40625,0 -1.78125,-0.03125 V -6.375 H 1.46875 v 5.90625 H 0.390625 V 0 c 0.375,-0.03125 1.359375,-0.03125 1.78125,-0.03125 0.4375,0 1.40625,0 1.78125,0.03125 V -0.46875 H 2.875 V -3.3125 h 3.203125 v 2.84375 H 5 V 0 c 0.390625,-0.03125 1.359375,-0.03125 1.78125,-0.03125 0.4375,0 1.40625,0 1.796875,0.03125 V -0.46875 H 7.5 Z m 0,0"
             id="id-91b5ed47-ed1b-49a2-9f0a-0c7a6a50c173" />
        </g>
        <g
           id="id-826f3965-a3d9-4dca-9258-834115a75e6a">
          <path
             d="M 4.453125,-6.375 H 5.25 V -6.84375 C 4.90625,-6.8125 4.0625,-6.8125 3.671875,-6.8125 c -0.53125,0 -1.515625,0 -1.984375,-0.03125 V -6.375 h 1.40625 v 4.890625 c 0,0.1875 0,1.234375 -0.984375,1.234375 -0.171875,0 -0.5,-0.03125 -0.796875,-0.15625 v -0.015625 c 0,0 0.4375,-0.1875 0.4375,-0.71875 0,-0.53125 -0.421875,-0.765625 -0.75,-0.765625 -0.375,0 -0.765625,0.25 -0.765625,0.765625 0,0.765625 0.78125,1.25 1.921875,1.25 1.328125,0 2.296875,-0.5625 2.296875,-1.609375 z m 0,0"
             id="id-516a5019-c085-4342-95ce-feb9f3ca0b43" />
        </g>
        <g
           id="id-632dab48-6123-4c4f-991f-63779409219f">
          <path
             d="m 7.203125,-2.734375 h -0.46875 c -0.21875,1.375 -0.5,2.265625 -2.34375,2.265625 H 2.875 v -2.8125 h 0.546875 c 0.96875,0 1.0625,0.4375 1.0625,1.171875 h 0.46875 v -2.8125 h -0.46875 c 0,0.75 -0.09375,1.171875 -1.0625,1.171875 H 2.875 v -2.5625 h 1.515625 c 1.609375,0 1.875,0.734375 2.03125,1.9375 h 0.46875 l -0.3125,-2.40625 h -6.1875 V -6.3125 H 1.46875 v 5.84375 H 0.390625 V 0 H 6.75 Z m 0,0"
             id="id-8f707fc6-6246-41af-80d8-e48bfcfd5483" />
        </g>
        <g
           id="id-8530518a-6878-48fe-8506-ad0b6c120293">
          <path
             d="M 4,-4.125 2.5625,-4.4375 C 2.15625,-4.53125 1.609375,-4.859375 1.609375,-5.46875 c 0,-0.4375 0.28125,-1.046875 1.265625,-1.046875 0.796875,0 1.8125,0.328125 2.046875,1.6875 0.03125,0.25 0.03125,0.265625 0.234375,0.265625 0.25,0 0.25,-0.046875 0.25,-0.28125 v -1.828125 c 0,-0.1875 0,-0.28125 -0.1875,-0.28125 -0.078125,0 -0.078125,0.015625 -0.1875,0.109375 l -0.453125,0.4375 C 4,-6.859375 3.34375,-6.953125 2.875,-6.953125 c -1.515625,0 -2.234375,0.96875 -2.234375,2.015625 0,0.640625 0.328125,1.09375 0.53125,1.3125 0.5,0.5 0.828125,0.5625 1.921875,0.796875 0.875,0.203125 1.046875,0.21875 1.265625,0.4375 C 4.5,-2.25 4.75,-1.984375 4.75,-1.53125 c 0,0.484375 -0.25,1.171875 -1.296875,1.171875 -0.75,0 -2.265625,-0.203125 -2.34375,-1.6875 C 1.09375,-2.21875 1.09375,-2.265625 0.875,-2.265625 c -0.234375,0 -0.234375,0.046875 -0.234375,0.28125 v 1.8125 c 0,0.1875 0,0.28125 0.171875,0.28125 0.09375,0 0.109375,-0.015625 0.1875,-0.09375 L 1.46875,-0.4375 c 0.65625,0.484375 1.578125,0.546875 1.984375,0.546875 1.65625,0 2.265625,-1.125 2.265625,-2.140625 C 5.71875,-3.125 4.921875,-3.9375 4,-4.125 Z m 0,0"
             id="id-854acc27-e0a2-4975-b016-0068f27ae589" />
        </g>
        <g
           id="id-3533cd27-4018-43e9-a702-0c8a02c3bb7a">
          <path
             d="M 7.34375,-6.171875 C 7.4375,-6.3125 7.515625,-6.3125 7.734375,-6.34375 7.90625,-6.359375 8.078125,-6.375 8.25,-6.375 H 8.46875 V -6.84375 C 8.0625,-6.828125 7.609375,-6.8125 7.328125,-6.8125 c -0.390625,0 -0.953125,0 -1.3125,-0.03125 V -6.375 c 0.21875,0 0.5,0 0.75,0.109375 C 6.75,-6.234375 6.75,-6.203125 6.703125,-6.15625 l -1.875,2.75 L 2.8125,-6.375 H 3.65625 V -6.84375 C 3.25,-6.8125 2.28125,-6.8125 1.828125,-6.8125 c -0.390625,0 -1.296875,0 -1.640625,-0.03125 V -6.375 H 1.171875 L 3.65625,-2.734375 V -0.46875 H 2.578125 V 0 c 0.359375,-0.03125 1.328125,-0.03125 1.75,-0.03125 0.421875,0 1.390625,0 1.765625,0.03125 V -0.46875 H 5 v -2.265625 z m 0,0"
             id="id-afa35b02-a82d-4151-8d4c-2b35328808bb" />
        </g>
        <g
           id="id-6e982e0c-7778-4ea9-8c30-f7f699e2540f">
          <path
             d="m 7.640625,-6.671875 c 0,-0.1875 0,-0.28125 -0.1875,-0.28125 -0.09375,0 -0.109375,0.03125 -0.1875,0.09375 l -0.65625,0.59375 c -0.625,-0.5 -1.28125,-0.6875 -1.96875,-0.6875 -2.484375,0 -4,1.484375 -4,3.53125 0,2.046875 1.515625,3.53125 4,3.53125 1.875,0 3,-1.21875 3,-2.375 0,-0.203125 -0.078125,-0.203125 -0.25,-0.203125 -0.125,0 -0.21875,0 -0.21875,0.171875 -0.078125,1.328125 -1.28125,1.9375 -2.28125,1.9375 -0.78125,0 -1.625,-0.234375 -2.140625,-0.84375 -0.46875,-0.578125 -0.59375,-1.3125 -0.59375,-2.21875 0,-0.5625 0.03125,-1.625 0.671875,-2.296875 0.640625,-0.65625 1.515625,-0.765625 2.03125,-0.765625 1.078125,0 2.015625,0.765625 2.234375,2.03125 C 7.125,-4.265625 7.140625,-4.25 7.359375,-4.25 c 0.265625,0 0.28125,-0.015625 0.28125,-0.28125 z m 0,0"
             id="id-9b3b0cd7-3b3d-47a2-94b0-4043432d897d" />
        </g>
        <g
           id="id-c4fd59a7-c3f6-494d-95d1-2b49493c4553">
          <path
             d="M 2.875,-6.375 H 4.015625 V -6.84375 C 3.609375,-6.8125 2.625,-6.8125 2.171875,-6.8125 c -0.453125,0 -1.4375,0 -1.84375,-0.03125 V -6.375 H 1.46875 v 5.90625 H 0.328125 V 0 c 0.40625,-0.03125 1.390625,-0.03125 1.84375,-0.03125 0.453125,0 1.4375,0 1.84375,0.03125 V -0.46875 H 2.875 Z m 0,0"
             id="id-42422ebb-a184-4119-b13d-c6afd4f982c8" />
        </g>
      </g>
    </defs>
    <g
       fill="#007aa6"
       fill-opacity="1"
       id="id-53421121-02c6-4e28-8fb2-e524b6c39a6a"
       transform="translate(-260.59,-127.812)">
      <g
         transform="translate(260.199,134.765)"
         id="g1033">
        <path
           d="M 3,-6.703125 C 2.890625,-6.828125 2.875,-6.84375 2.671875,-6.84375 H 0.390625 V -6.375 H 1.46875 v 5.625 c 0,0.21875 -0.015625,0.21875 -0.296875,0.25 -0.234375,0.03125 -0.25,0.03125 -0.53125,0.03125 h -0.25 V 0 c 0.375,-0.03125 0.9375,-0.03125 1.328125,-0.03125 0.421875,0 0.9375,0 1.359375,0.03125 v -0.46875 h -0.25 C 2.640625,-0.46875 2.46875,-0.484375 2.296875,-0.5 2,-0.53125 2,-0.53125 2,-0.75 V -5.96875 L 6.953125,-0.125 C 7.0625,-0.015625 7.0625,0 7.234375,0 7.5,0 7.5,-0.09375 7.5,-0.3125 V -6.078125 C 7.5,-6.296875 7.5,-6.3125 7.78125,-6.34375 8.03125,-6.375 8.046875,-6.375 8.328125,-6.375 h 0.25 V -6.84375 C 8.1875,-6.8125 7.625,-6.8125 7.234375,-6.8125 c -0.421875,0 -0.9375,0 -1.34375,-0.03125 V -6.375 h 0.25 c 0.171875,0 0.34375,0.015625 0.53125,0.03125 0.28125,0.03125 0.296875,0.046875 0.296875,0.265625 v 4.03125 z m 0,0"
           id="id-37c28c69-dff9-438a-8569-ac6bc450a170" />
      </g>
      <g
         transform="translate(269.165,134.765)"
         id="g1036">
        <path
           d="m 7.96875,-3.375 c 0,-2.15625 -1.453125,-3.578125 -3.65625,-3.578125 -2.28125,0 -3.671875,1.484375 -3.671875,3.578125 0,2.0625 1.390625,3.484375 3.65625,3.484375 2.296875,0 3.671875,-1.4375 3.671875,-3.484375 z m -3.671875,3.0625 c -0.59375,0 -1.3125,-0.28125 -1.71875,-1.03125 C 2.25,-1.96875 2.15625,-2.671875 2.15625,-3.53125 c 0,-0.640625 0.03125,-1.484375 0.46875,-2.15625 0.421875,-0.609375 1.078125,-0.859375 1.671875,-0.859375 0.640625,0 1.328125,0.28125 1.71875,0.9375 0.390625,0.640625 0.421875,1.40625 0.421875,2.078125 0,0.703125 -0.03125,1.59375 -0.453125,2.28125 -0.453125,0.71875 -1.15625,0.9375 -1.6875,0.9375 z m 0,0"
           id="id-6c7871f8-5f3c-45ad-9496-d33714bbed87" />
      </g>
      <g
         transform="translate(277.772,134.765)"
         id="g1039">
        <path
           d="M 2.828125,-3.59375 V -6.375 H 4 c 1.609375,0 1.625,0.78125 1.625,1.390625 0,0.5625 0,1.390625 -1.640625,1.390625 z m 2.65625,0.203125 C 6.640625,-3.6875 7.140625,-4.34375 7.140625,-5 c 0,-1 -1.09375,-1.84375 -2.96875,-1.84375 H 0.390625 V -6.375 H 1.46875 v 5.90625 H 0.390625 V 0 c 0.359375,-0.03125 1.328125,-0.03125 1.75,-0.03125 0.421875,0 1.390625,0 1.75,0.03125 v -0.46875 h -1.0625 v -2.765625 h 1.15625 c 0.140625,0 0.578125,0 0.890625,0.328125 0.3125,0.359375 0.3125,0.546875 0.3125,1.265625 0,0.65625 0,1.15625 0.703125,1.484375 0.4375,0.21875 1.0625,0.265625 1.46875,0.265625 1.0625,0 1.1875,-0.890625 1.1875,-1.0625 0,-0.21875 -0.140625,-0.21875 -0.234375,-0.21875 -0.203125,0 -0.21875,0.109375 -0.234375,0.234375 C 8.03125,-0.46875 7.75,-0.25 7.453125,-0.25 c -0.609375,0 -0.6875,-0.703125 -0.75,-1.125 C 6.6875,-1.484375 6.609375,-2.171875 6.59375,-2.21875 6.453125,-2.921875 5.90625,-3.234375 5.484375,-3.390625 Z m 0,0"
           id="id-65fc692a-9b40-42af-bd5a-7041c2c2ccab" />
      </g>
    </g>
    <g
       fill="#007aa6"
       fill-opacity="1"
       id="id-3e537bbb-5229-4019-92db-8a3d559fab07"
       transform="translate(-260.59,-127.812)">
      <g
         transform="translate(285.408,134.765)"
         id="g1043">
        <path
           d="M 7.34375,-6.734375 H 0.625 l -0.203125,2.40625 h 0.46875 c 0.09375,-1.125 0.1875,-1.9375 1.625,-1.9375 H 3.28125 V -0.46875 H 1.75 V 0 c 0.546875,-0.03125 1.65625,-0.03125 2.234375,-0.03125 0.59375,0 1.703125,0 2.234375,0.03125 V -0.46875 H 4.6875 v -5.796875 h 0.765625 c 1.421875,0 1.53125,0.796875 1.625,1.9375 h 0.46875 z m 0,0"
           id="id-edab8791-233f-4bd7-a5ca-20f78a3be6ed" />
      </g>
      <g
         transform="translate(293.378,134.765)"
         id="g1046">
        <path
           d="M 7.5,-6.375 H 8.578125 V -6.84375 C 8.1875,-6.8125 7.21875,-6.8125 6.78125,-6.8125 c -0.421875,0 -1.390625,0 -1.78125,-0.03125 V -6.375 h 1.078125 v 2.59375 H 2.875 V -6.375 h 1.078125 v -0.46875 c -0.375,0.03125 -1.34375,0.03125 -1.78125,0.03125 -0.421875,0 -1.40625,0 -1.78125,-0.03125 V -6.375 H 1.46875 v 5.90625 H 0.390625 V 0 c 0.375,-0.03125 1.359375,-0.03125 1.78125,-0.03125 0.4375,0 1.40625,0 1.78125,0.03125 V -0.46875 H 2.875 V -3.3125 h 3.203125 v 2.84375 H 5 V 0 c 0.390625,-0.03125 1.359375,-0.03125 1.78125,-0.03125 0.4375,0 1.40625,0 1.796875,0.03125 V -0.46875 H 7.5 Z m 0,0"
           id="id-4ade9039-aa41-4c09-846f-3fe3eba8eb55" />
      </g>
    </g>
    <g
       fill="#007aa6"
       fill-opacity="1"
       id="id-2d2c7242-72f8-418b-99e7-fc77c9d93e12"
       transform="translate(-260.59,-127.812)">
      <g
         transform="translate(306.17,134.765)"
         id="g1050">
        <path
           d="M 4.453125,-6.375 H 5.25 V -6.84375 C 4.90625,-6.8125 4.0625,-6.8125 3.671875,-6.8125 c -0.53125,0 -1.515625,0 -1.984375,-0.03125 V -6.375 h 1.40625 v 4.890625 c 0,0.1875 0,1.234375 -0.984375,1.234375 -0.171875,0 -0.5,-0.03125 -0.796875,-0.15625 v -0.015625 c 0,0 0.4375,-0.1875 0.4375,-0.71875 0,-0.53125 -0.421875,-0.765625 -0.75,-0.765625 -0.375,0 -0.765625,0.25 -0.765625,0.765625 0,0.765625 0.78125,1.25 1.921875,1.25 1.328125,0 2.296875,-0.5625 2.296875,-1.609375 z m 0,0"
           id="id-fed26eb3-7620-4942-831b-759d90d6625a" />
      </g>
      <g
         transform="translate(312.092,134.765)"
         id="g1053">
        <path
           d="m 7.203125,-2.734375 h -0.46875 c -0.21875,1.375 -0.5,2.265625 -2.34375,2.265625 H 2.875 v -2.8125 h 0.546875 c 0.96875,0 1.0625,0.4375 1.0625,1.171875 h 0.46875 v -2.8125 h -0.46875 c 0,0.75 -0.09375,1.171875 -1.0625,1.171875 H 2.875 v -2.5625 h 1.515625 c 1.609375,0 1.875,0.734375 2.03125,1.9375 h 0.46875 l -0.3125,-2.40625 h -6.1875 V -6.3125 H 1.46875 v 5.84375 H 0.390625 V 0 H 6.75 Z m 0,0"
           id="id-ec398233-c89d-4446-b6bb-996c16fa26c9" />
      </g>
      <g
         transform="translate(319.62,134.765)"
         id="g1056">
        <path
           d="M 2.828125,-3.59375 V -6.375 H 4 c 1.609375,0 1.625,0.78125 1.625,1.390625 0,0.5625 0,1.390625 -1.640625,1.390625 z m 2.65625,0.203125 C 6.640625,-3.6875 7.140625,-4.34375 7.140625,-5 c 0,-1 -1.09375,-1.84375 -2.96875,-1.84375 H 0.390625 V -6.375 H 1.46875 v 5.90625 H 0.390625 V 0 c 0.359375,-0.03125 1.328125,-0.03125 1.75,-0.03125 0.421875,0 1.390625,0 1.75,0.03125 v -0.46875 h -1.0625 v -2.765625 h 1.15625 c 0.140625,0 0.578125,0 0.890625,0.328125 0.3125,0.359375 0.3125,0.546875 0.3125,1.265625 0,0.65625 0,1.15625 0.703125,1.484375 0.4375,0.21875 1.0625,0.265625 1.46875,0.265625 1.0625,0 1.1875,-0.890625 1.1875,-1.0625 0,-0.21875 -0.140625,-0.21875 -0.234375,-0.21875 -0.203125,0 -0.21875,0.109375 -0.234375,0.234375 C 8.03125,-0.46875 7.75,-0.25 7.453125,-0.25 c -0.609375,0 -0.6875,-0.703125 -0.75,-1.125 C 6.6875,-1.484375 6.609375,-2.171875 6.59375,-2.21875 6.453125,-2.921875 5.90625,-3.234375 5.484375,-3.390625 Z m 0,0"
           id="id-d5914d8d-9326-425f-b069-1f32963445bb" />
      </g>
      <g
         transform="translate(328.213,134.765)"
         id="g1059">
        <path
           d="M 4,-4.125 2.5625,-4.4375 C 2.15625,-4.53125 1.609375,-4.859375 1.609375,-5.46875 c 0,-0.4375 0.28125,-1.046875 1.265625,-1.046875 0.796875,0 1.8125,0.328125 2.046875,1.6875 0.03125,0.25 0.03125,0.265625 0.234375,0.265625 0.25,0 0.25,-0.046875 0.25,-0.28125 v -1.828125 c 0,-0.1875 0,-0.28125 -0.1875,-0.28125 -0.078125,0 -0.078125,0.015625 -0.1875,0.109375 l -0.453125,0.4375 C 4,-6.859375 3.34375,-6.953125 2.875,-6.953125 c -1.515625,0 -2.234375,0.96875 -2.234375,2.015625 0,0.640625 0.328125,1.09375 0.53125,1.3125 0.5,0.5 0.828125,0.5625 1.921875,0.796875 0.875,0.203125 1.046875,0.21875 1.265625,0.4375 C 4.5,-2.25 4.75,-1.984375 4.75,-1.53125 c 0,0.484375 -0.25,1.171875 -1.296875,1.171875 -0.75,0 -2.265625,-0.203125 -2.34375,-1.6875 C 1.09375,-2.21875 1.09375,-2.265625 0.875,-2.265625 c -0.234375,0 -0.234375,0.046875 -0.234375,0.28125 v 1.8125 c 0,0.1875 0,0.28125 0.171875,0.28125 0.09375,0 0.109375,-0.015625 0.1875,-0.09375 L 1.46875,-0.4375 c 0.65625,0.484375 1.578125,0.546875 1.984375,0.546875 1.65625,0 2.265625,-1.125 2.265625,-2.140625 C 5.71875,-3.125 4.921875,-3.9375 4,-4.125 Z m 0,0"
           id="id-cc77034d-be69-4b63-9032-990f5a6412ed" />
      </g>
    </g>
    <g
       fill="#007aa6"
       fill-opacity="1"
       id="id-807615f5-e155-46ab-bb97-a30bb9ec4636"
       transform="translate(-260.59,-127.812)">
      <g
         transform="translate(334.568,134.765)"
         id="g1063">
        <path
           d="m 7.203125,-2.734375 h -0.46875 c -0.21875,1.375 -0.5,2.265625 -2.34375,2.265625 H 2.875 v -2.8125 h 0.546875 c 0.96875,0 1.0625,0.4375 1.0625,1.171875 h 0.46875 v -2.8125 h -0.46875 c 0,0.75 -0.09375,1.171875 -1.0625,1.171875 H 2.875 v -2.5625 h 1.515625 c 1.609375,0 1.875,0.734375 2.03125,1.9375 h 0.46875 l -0.3125,-2.40625 h -6.1875 V -6.3125 H 1.46875 v 5.84375 H 0.390625 V 0 H 6.75 Z m 0,0"
           id="id-80430a89-5072-4952-b6c1-ae221cdf38dd" />
      </g>
      <g
         transform="translate(342.096,134.765)"
         id="g1066">
        <path
           d="M 7.34375,-6.171875 C 7.4375,-6.3125 7.515625,-6.3125 7.734375,-6.34375 7.90625,-6.359375 8.078125,-6.375 8.25,-6.375 H 8.46875 V -6.84375 C 8.0625,-6.828125 7.609375,-6.8125 7.328125,-6.8125 c -0.390625,0 -0.953125,0 -1.3125,-0.03125 V -6.375 c 0.21875,0 0.5,0 0.75,0.109375 C 6.75,-6.234375 6.75,-6.203125 6.703125,-6.15625 l -1.875,2.75 L 2.8125,-6.375 H 3.65625 V -6.84375 C 3.25,-6.8125 2.28125,-6.8125 1.828125,-6.8125 c -0.390625,0 -1.296875,0 -1.640625,-0.03125 V -6.375 H 1.171875 L 3.65625,-2.734375 V -0.46875 H 2.578125 V 0 c 0.359375,-0.03125 1.328125,-0.03125 1.75,-0.03125 0.421875,0 1.390625,0 1.765625,0.03125 V -0.46875 H 5 v -2.265625 z m 0,0"
           id="id-a7742fcf-c4ba-4dd6-b0a9-754d703ec2ff" />
      </g>
    </g>
    <g
       fill="#007aa6"
       fill-opacity="1"
       id="id-82f9dc79-7db7-42ac-a87c-03ddf1c96584"
       transform="translate(-260.59,-127.812)">
      <g
         transform="translate(279.597,146.72)"
         id="g1070">
        <path
           d="M 4,-4.125 2.5625,-4.4375 C 2.15625,-4.53125 1.609375,-4.859375 1.609375,-5.46875 c 0,-0.4375 0.28125,-1.046875 1.265625,-1.046875 0.796875,0 1.8125,0.328125 2.046875,1.6875 0.03125,0.25 0.03125,0.265625 0.234375,0.265625 0.25,0 0.25,-0.046875 0.25,-0.28125 v -1.828125 c 0,-0.1875 0,-0.28125 -0.1875,-0.28125 -0.078125,0 -0.078125,0.015625 -0.1875,0.109375 l -0.453125,0.4375 C 4,-6.859375 3.34375,-6.953125 2.875,-6.953125 c -1.515625,0 -2.234375,0.96875 -2.234375,2.015625 0,0.640625 0.328125,1.09375 0.53125,1.3125 0.5,0.5 0.828125,0.5625 1.921875,0.796875 0.875,0.203125 1.046875,0.21875 1.265625,0.4375 C 4.5,-2.25 4.75,-1.984375 4.75,-1.53125 c 0,0.484375 -0.25,1.171875 -1.296875,1.171875 -0.75,0 -2.265625,-0.203125 -2.34375,-1.6875 C 1.09375,-2.21875 1.09375,-2.265625 0.875,-2.265625 c -0.234375,0 -0.234375,0.046875 -0.234375,0.28125 v 1.8125 c 0,0.1875 0,0.28125 0.171875,0.28125 0.09375,0 0.109375,-0.015625 0.1875,-0.09375 L 1.46875,-0.4375 c 0.65625,0.484375 1.578125,0.546875 1.984375,0.546875 1.65625,0 2.265625,-1.125 2.265625,-2.140625 C 5.71875,-3.125 4.921875,-3.9375 4,-4.125 Z m 0,0"
           id="id-13ab8a11-e038-49d8-9cc0-ef07e7a445bc" />
      </g>
      <g
         transform="translate(285.962,146.72)"
         id="g1073">
        <path
           d="m 7.203125,-2.734375 h -0.46875 c -0.21875,1.375 -0.5,2.265625 -2.34375,2.265625 H 2.875 v -2.8125 h 0.546875 c 0.96875,0 1.0625,0.4375 1.0625,1.171875 h 0.46875 v -2.8125 h -0.46875 c 0,0.75 -0.09375,1.171875 -1.0625,1.171875 H 2.875 v -2.5625 h 1.515625 c 1.609375,0 1.875,0.734375 2.03125,1.9375 h 0.46875 l -0.3125,-2.40625 h -6.1875 V -6.3125 H 1.46875 v 5.84375 H 0.390625 V 0 H 6.75 Z m 0,0"
           id="id-46dbabaf-68d2-4a81-be90-a9833557b7f4" />
      </g>
      <g
         transform="translate(293.49,146.72)"
         id="g1076">
        <path
           d="m 7.640625,-6.671875 c 0,-0.1875 0,-0.28125 -0.1875,-0.28125 -0.09375,0 -0.109375,0.03125 -0.1875,0.09375 l -0.65625,0.59375 c -0.625,-0.5 -1.28125,-0.6875 -1.96875,-0.6875 -2.484375,0 -4,1.484375 -4,3.53125 0,2.046875 1.515625,3.53125 4,3.53125 1.875,0 3,-1.21875 3,-2.375 0,-0.203125 -0.078125,-0.203125 -0.25,-0.203125 -0.125,0 -0.21875,0 -0.21875,0.171875 -0.078125,1.328125 -1.28125,1.9375 -2.28125,1.9375 -0.78125,0 -1.625,-0.234375 -2.140625,-0.84375 -0.46875,-0.578125 -0.59375,-1.3125 -0.59375,-2.21875 0,-0.5625 0.03125,-1.625 0.671875,-2.296875 0.640625,-0.65625 1.515625,-0.765625 2.03125,-0.765625 1.078125,0 2.015625,0.765625 2.234375,2.03125 C 7.125,-4.265625 7.140625,-4.25 7.359375,-4.25 c 0.265625,0 0.28125,-0.015625 0.28125,-0.28125 z m 0,0"
           id="id-58539fe3-31d2-4cf2-97d4-b55aba6063f7" />
      </g>
      <g
         transform="translate(301.765,146.72)"
         id="g1079">
        <path
           d="M 7.34375,-6.734375 H 0.625 l -0.203125,2.40625 h 0.46875 c 0.09375,-1.125 0.1875,-1.9375 1.625,-1.9375 H 3.28125 V -0.46875 H 1.75 V 0 c 0.546875,-0.03125 1.65625,-0.03125 2.234375,-0.03125 0.59375,0 1.703125,0 2.234375,0.03125 V -0.46875 H 4.6875 v -5.796875 h 0.765625 c 1.421875,0 1.53125,0.796875 1.625,1.9375 h 0.46875 z m 0,0"
           id="id-5a6b3bfc-2c0d-4959-9ad7-974490d1b65f" />
      </g>
      <g
         transform="translate(309.735,146.72)"
         id="g1082">
        <path
           d="M 2.875,-6.375 H 4.015625 V -6.84375 C 3.609375,-6.8125 2.625,-6.8125 2.171875,-6.8125 c -0.453125,0 -1.4375,0 -1.84375,-0.03125 V -6.375 H 1.46875 v 5.90625 H 0.328125 V 0 c 0.40625,-0.03125 1.390625,-0.03125 1.84375,-0.03125 0.453125,0 1.4375,0 1.84375,0.03125 V -0.46875 H 2.875 Z m 0,0"
           id="id-b1cab025-ed13-499d-beb3-dd6740054b6a" />
      </g>
      <g
         transform="translate(314.08,146.72)"
         id="g1085">
        <path
           d="m 7.96875,-3.375 c 0,-2.15625 -1.453125,-3.578125 -3.65625,-3.578125 -2.28125,0 -3.671875,1.484375 -3.671875,3.578125 0,2.0625 1.390625,3.484375 3.65625,3.484375 2.296875,0 3.671875,-1.4375 3.671875,-3.484375 z m -3.671875,3.0625 c -0.59375,0 -1.3125,-0.28125 -1.71875,-1.03125 C 2.25,-1.96875 2.15625,-2.671875 2.15625,-3.53125 c 0,-0.640625 0.03125,-1.484375 0.46875,-2.15625 0.421875,-0.609375 1.078125,-0.859375 1.671875,-0.859375 0.640625,0 1.328125,0.28125 1.71875,0.9375 0.390625,0.640625 0.421875,1.40625 0.421875,2.078125 0,0.703125 -0.03125,1.59375 -0.453125,2.28125 -0.453125,0.71875 -1.15625,0.9375 -1.6875,0.9375 z m 0,0"
           id="id-c23704b0-f7c5-4ac9-8434-99c897c70a31" />
      </g>
      <g
         transform="translate(322.686,146.72)"
         id="g1088">
        <path
           d="M 3,-6.703125 C 2.890625,-6.828125 2.875,-6.84375 2.671875,-6.84375 H 0.390625 V -6.375 H 1.46875 v 5.625 c 0,0.21875 -0.015625,0.21875 -0.296875,0.25 -0.234375,0.03125 -0.25,0.03125 -0.53125,0.03125 h -0.25 V 0 c 0.375,-0.03125 0.9375,-0.03125 1.328125,-0.03125 0.421875,0 0.9375,0 1.359375,0.03125 v -0.46875 h -0.25 C 2.640625,-0.46875 2.46875,-0.484375 2.296875,-0.5 2,-0.53125 2,-0.53125 2,-0.75 V -5.96875 L 6.953125,-0.125 C 7.0625,-0.015625 7.0625,0 7.234375,0 7.5,0 7.5,-0.09375 7.5,-0.3125 V -6.078125 C 7.5,-6.296875 7.5,-6.3125 7.78125,-6.34375 8.03125,-6.375 8.046875,-6.375 8.328125,-6.375 h 0.25 V -6.84375 C 8.1875,-6.8125 7.625,-6.8125 7.234375,-6.8125 c -0.421875,0 -0.9375,0 -1.34375,-0.03125 V -6.375 h 0.25 c 0.171875,0 0.34375,0.015625 0.53125,0.03125 0.28125,0.03125 0.296875,0.046875 0.296875,0.265625 v 4.03125 z m 0,0"
           id="id-ed692dd9-446b-4acd-b944-af0cc78ada14" />
      </g>
    </g>
  </g>
</svg>
